<?xml version="1.0" standalone="no"?>
<!DOCTYPE svg PUBLIC "-//W3C//DTD SVG 20010904//EN"
 "http://www.w3.org/TR/2001/REC-SVG-20010904/DTD/svg10.dtd">
<svg version="1.0" xmlns="http://www.w3.org/2000/svg"
 width="256.000000pt" height="256.000000pt" viewBox="0 0 256.000000 256.000000"
 preserveAspectRatio="xMidYMid meet">
<metadata>
Created by potrace 1.11, written by Peter Selinger 2001-2013
</metadata>
<g transform="translate(0.000000,256.000000) scale(0.100000,-0.100000)"
fill="#000000" stroke="none">
<path d="M400 2390 c-126 -5 -164 -18 -198 -67 -32 -47 -34 -62 -33 -260 l1
-193 -73 0 c-43 0 -78 -5 -85 -12 -9 -9 -12 -104 -12 -364 0 -294 2 -354 14
-364 8 -6 45 -12 83 -13 l68 -2 2 -405 c1 -336 4 -411 17 -441 15 -37 64 -81
103 -93 13 -4 341 -7 730 -7 946 0 854 -2 860 19 6 26 97 24 116 -2 13 -17 27
-19 135 -18 67 0 132 4 144 8 41 12 78 45 99 86 20 39 21 58 22 447 l2 406 74
1 c50 1 76 6 82 15 14 23 11 713 -3 727 -7 7 -41 12 -84 12 l-72 0 0 194 c0
186 -1 196 -23 238 -16 27 -40 51 -67 66 l-42 24 -873 1 c-479 1 -924 0 -987
-3z"/>
</g>
</svg>
